# xmcd
#
# Track frame offsets: 
#        150
#        16278
#        39485
#        56516
#        77023
#        87993
#        106293
#        125395
#        140257
#        160705
#        181579
#        193725
#        204320
#
# Disc length: 2960 seconds
#
# Revision: 4
# Processed by: cddbd v1.5.2PL0 Copyright (c) Steve Scherf et al.
# Submitted via: ExactAudioCopy v1.0b4
#
DISCID=9c0b8e0d
DTITLE=Cephas and Wiggins - Somebody Told The Truth
DYEAR=2002
DGENRE=Blues
TTITLE0=Stack and The Devil
TTITLE1=Railroad Bill
TTITLE2=Last Fair Deal Gone Down
TTITLE3=Sick Bed Blues
TTITLE4=The Pimp In The Pink Suit
TTITLE5=Burn Your Bridges
TTITLE6=Darling Cora
TTITLE7=Forgiveness
TTITLE8=Bowling Green Strut
TTITLE9=Darkness On The Delta
TTITLE10=Reno Factory
TTITLE11=Somebody Told The Truth On Me
TTITLE12=Something Smells
EXTD=YEAR: 2002
EXTT0=
EXTT1=
EXTT2=
EXTT3=
EXTT4=
EXTT5=
EXTT6=
EXTT7=
EXTT8=
EXTT9=
EXTT10=
EXTT11=
EXTT12=
PLAYORDER=
